Coordinates
version=1
nRows=7
nColumns=46
inDegrees=yes

Units are S.I. units (second, meters, Newtons, ...)
Angles are in degrees.

endheader
time	pelvis_tilt	pelvis_list	pelvis_rotation	pelvis_tx	pelvis_ty	pelvis_tz	bb_angle	bb_tx	bb_ty	bb_tz	hip_flexion_r	hip_adduction_r	hip_rotation_r	knee_angle_r	knee_angle_r_beta	ankle_angle_r	subtalar_angle_r	mtp_angle_r	crank_angle_r	hip_flexion_l	hip_adduction_l	hip_rotation_l	knee_angle_l	knee_angle_l_beta	ankle_angle_l	subtalar_angle_l	mtp_angle_l	crank_angle_l	lumbar_extension	lumbar_bending	lumbar_rotation	arm_flex_r	arm_add_r	arm_rot_r	elbow_flex_r	pro_sup_r	wrist_flex_r	wrist_dev_r	arm_flex_l	arm_add_l	arm_rot_l	elbow_flex_l	pro_sup_l	wrist_flex_l	wrist_dev_l
      2.50500000	    -22.84285543	      6.25052936	     -4.02110429	      0.34839987	      1.13879646	     -0.20643681	      0.00000000	      0.50000000	      0.00000000	      0.25000000	     45.60517246	     -4.04579585	      9.62454197	     38.77768528	      0.67679828	      1.39642570	     -9.31142655	      0.00000000	      0.00000000	     61.57321810	     -1.72189695	      2.51747647	     96.78309092	      1.68918360	    -13.65923398	     -2.63186527	      0.00000000	      0.00000000	    -53.17941958	     -0.65655216	     -7.26800480	     62.66296986	    -18.40294133	     48.96968362	     72.53393977	     58.19652821	      0.00000000	      0.00000000	     40.71440597	    -31.78685862	     10.48904751	     80.73637120	     52.94517669	      0.00000000	      0.00000000
      2.51000000	    -22.66847866	      6.47365747	     -3.53716616	      0.34897517	      1.13645899	     -0.20648151	      0.00000000	      0.50000000	      0.00000000	      0.25000000	     44.13307741	     -4.66925175	      9.39057976	     37.18039610	      0.64892033	      0.71416607	     -9.41568883	      0.00000000	      0.00000000	     63.10273027	     -1.64070658	      2.69221614	     98.82281950	      1.72478358	    -13.42884323	     -1.19997706	      0.00000000	      0.00000000	    -52.66116091	     -0.82161996	     -7.71633232	     61.92697669	    -18.02594917	     48.47963890	     71.69325668	     57.95907706	      0.00000000	      0.00000000	     41.05374849	    -32.00832606	     11.72703674	     79.80754457	     52.92413831	      0.00000000	      0.00000000
      2.51500000	    -22.69400491	      6.98807989	     -3.12432159	      0.34963088	      1.13429741	     -0.20664071	      0.00000000	      0.50000000	      0.00000000	      0.25000000	     42.90752700	     -5.54257427	      9.27758049	     35.57673020	      0.62093108	      0.24884822	     -8.95904753	      0.00000000	      0.00000000	     64.48372984	     -1.11777621	      2.34615918	    100.42661233	      1.75277504	    -13.16313516	     -1.69634839	      0.00000000	      0.00000000	    -52.03690643	     -1.36981549	     -8.35805774	     61.27705233	    -18.13619898	     48.42096738	     71.41484464	     57.88248303	      0.00000000	      0.00000000	     41.01947599	    -31.93863289	     12.11186457	     79.67446022	     52.92829858	      0.00000000	      0.00000000
      2.52000000	    -22.60892489	      7.72910203	     -2.46475498	      0.35039739	      1.13298023	     -0.20691970	      0.00000000	      0.50000000	      0.00000000	      0.25000000	     41.56401778	     -6.78582581	      9.02181085	     34.04051078	      0.59411899	     -0.26851760	     -8.59068649	      0.00000000	      0.00000000	     65.35381941	      0.15695695	      1.87760482	    101.59660853	      1.77319533	    -12.83872003	     -3.74155700	      0.00000000	      0.00000000	    -51.49812860	     -1.88413412	     -9.27877816	     60.20002785	    -17.24115487	     46.90263759	     70.12340517	     57.45481897	      0.00000000	      0.00000000	     41.67058771	    -32.42410762	     14.08317330	     78.48225291	     52.95414743	      0.00000000	      0.00000000
      2.52500000	    -22.72003021	      8.12603898	     -2.09069240	      0.35081283	      1.13117610	     -0.20668487	      0.00000000	      0.50000000	      0.00000000	      0.25000000	     40.45020396	     -7.48684779	      8.77036057	     32.60729870	      0.56910472	     -0.66040994	     -8.15867293	      0.00000000	      0.00000000	     66.73129525	      0.55221260	      1.72974123	    103.03830951	      1.79835776	    -12.20197823	     -3.94132424	      0.00000000	      0.00000000	    -50.89876945	     -2.41603307	     -9.90694742	     59.73730827	    -17.33536644	     46.80729428	     69.94682315	     57.39064109	      0.00000000	      0.00000000	     41.62909616	    -32.36621176	     14.27657487	     78.43041150	     52.94912224	      0.00000000	      0.00000000
      2.53000000	    -22.90854015	      8.30978932	     -1.52337648	      0.35131011	      1.12977615	     -0.20664871	      0.00000000	      0.50000000	      0.00000000	      0.25000000	     39.18531109	     -8.09842328	      8.27817010	     30.87900127	      0.53894024	     -1.45579355	     -7.99013941	      0.00000000	      0.00000000	     68.14884810	      0.95372104	      1.90599145	    104.33921221	      1.82106279	    -11.34566079	     -3.57539788	      0.00000000	      0.00000000	    -50.12881379	     -2.57312719	    -10.41318654	     58.65175975	    -16.13584415	     45.16898783	     68.51986236	     56.93412374	      0.00000000	      0.00000000	     41.75364656	    -32.77578674	     15.57503513	     77.66443257	     52.96700872	      0.00000000	      0.00000000
      2.53500000	    -23.06713349	      8.36011484	     -1.13086547	      0.35190478	      1.12845439	     -0.20635228	      0.00000000	      0.50000000	      0.00000000	      0.25000000	     37.91963392	     -8.48847830	      7.71825636	     29.25926963	      0.51067059	     -2.09486507	     -7.53792266	      0.00000000	      0.00000000	     69.63791773	      0.93133759	      2.21822681	    105.70065936	      1.84482453	    -10.40043494	     -2.35722421	      0.00000000	      0.00000000	    -49.49585802	     -2.80282531	    -10.79881395	     58.07104177	    -15.88365734	     44.81507986	     67.98657922	     56.79405128	      0.00000000	      0.00000000	     41.57275103	    -32.84692765	     15.99756289	     77.43160032	     52.97120495	      0.00000000	      0.00000000
